<?xml version="1.0" encoding="utf-8"?>
<!-- Generator: Adobe Illustrator 15.0.2, SVG Export Plug-In . SVG Version: 6.00 Build 0)  -->
<!DOCTYPE svg PUBLIC "-//W3C//DTD SVG 1.1//EN" "http://www.w3.org/Graphics/SVG/1.1/DTD/svg11.dtd">
<svg version="1.1" id="Layer_1" xmlns="http://www.w3.org/2000/svg" xmlns:xlink="http://www.w3.org/1999/xlink" x="0px" y="0px"
	 width="68px" height="28px" viewBox="0 0 68 28" enable-background="new 0 0 68 28" xml:space="preserve">
<g>
	<path fill="#FFFFFF" d="M9.713,15.494c0,1.152-0.588,2.117-1.176,2.469c-0.33,0.754-1.741,1.482-3.434,1.482
		c-1.224,0-2.329-0.375-4.258-2.164c-0.165-0.164-0.258-0.328-0.258-0.541c0-0.518,0.658-1.058,1.435-1.058
		c1.599,0,1.834,2.327,4.539,2.327c1.458,0,1.835-0.682,1.835-1.223c0-1.904-4.586-3.387-4.586-7.173
		c0-2.917,2.751-7.103,4.868-7.103c0.659,0,1.435,0.399,1.481,0.705c0.941,0.447,1.224,1.389,1.224,2.094
		c0,0.517-0.142,1.388-0.659,4.351c-0.141,0.8-0.517,1.176-1.2,1.176c-0.611,0-1.152-0.283-1.152-1.129
		c0-1.505,1.67-3.669,1.67-5.174c0-0.353-0.095-0.682-0.283-0.988C8.09,3.476,6.09,7.05,6.09,9.049
		C6.09,11.754,9.713,12.648,9.713,15.494z"/>
	<path fill="#FFFFFF" d="M13.128,17.023c0,0.492,0.118,0.775,0.423,0.775c0.871,0,2.164-2.846,2.423-3.363
		c0.142-0.258,0.282-0.4,0.4-0.4c0.094,0,0.165,0.095,0.165,0.235c0,0.118-0.024,0.234-0.095,0.399
		c-0.329,0.824-1.693,4.681-3.668,4.681c-0.917,0-1.694-0.658-1.694-2.424c0-1.41,0.893-5.761,1.834-9.219
		c0.118-0.4,0.494-0.612,0.941-0.612c0.588,0,1.223,0.4,1.223,1.2C15.08,9.543,13.128,15.211,13.128,17.023z M13.175,4.886
		c0-1.011,0.823-2.328,2.117-2.328c0.964,0,1.387,0.564,1.387,1.223c0,0.988-0.964,2.234-2.446,2.234
		C13.504,6.015,13.175,5.498,13.175,4.886z"/>
	<path fill="#FFFFFF" d="M14.753,24.668c0-2.494,2.54-3.74,4.986-5.223l0.659-3.316c-0.823,1.977-1.881,3.223-2.752,3.223
		c-1.27,0-1.811-1.363-1.811-3.199c0-3.575,2.069-8.891,4.775-8.891c0.964,0,1.481,1.011,1.528,1.741h0.165
		c0.588,0,1.317,0.494,1.317,1.412c0,0.893-0.423,2.445-1.34,7.291c1.034-0.848,1.951-1.906,2.61-3.27
		c0.119-0.258,0.281-0.376,0.4-0.376c0.094,0,0.165,0.071,0.165,0.234c0,0.095-0.048,0.235-0.094,0.376
		c-0.847,2.093-2.117,3.529-3.435,4.611c-0.964,4.609-2.517,7.689-4.774,7.689C15.812,26.971,14.753,25.961,14.753,24.668z
		 M19.363,21.068c-1.67,1.105-3.623,2.352-3.623,4.115c0,0.541,0.307,1.061,0.848,1.061c0.752,0,1.811-0.967,2.634-4.471
		L19.363,21.068z M21.621,9.45c-0.024-0.307-0.071-0.824-0.659-0.824c-1.575,0-3.01,5.504-3.01,7.974c0,0.705,0.118,1.152,0.4,1.152
		c1.105,0,2.258-3.034,2.964-6.703L21.621,9.45z"/>
	<path fill="#FFFFFF" d="M25.294,19.422c-0.493,0-1.034-0.352-1.034-1.059c0-0.07,0.023-0.141,0.023-0.211
		c0.423-3.529,0.965-5.905,2.07-9.668c0.117-0.423,0.494-0.611,0.87-0.611c0.565,0,1.153,0.399,1.153,1.082
		c0,0.611-0.4,1.575-0.54,2.187C28.799,8.932,30,7.215,31.222,7.215c1.389,0,1.741,1.27,1.741,2.14c0,2.658-2.281,6.727-2.281,8.161
		c0,0.307,0.117,0.494,0.375,0.494c1.036,0,2.658-3.104,2.94-3.574c0.142-0.235,0.329-0.4,0.448-0.4
		c0.071,0,0.117,0.047,0.117,0.165c0,0.094-0.023,0.235-0.094,0.423c-0.282,0.847-2,4.798-4.045,4.798
		c-0.942,0-1.835-0.658-1.835-2.07c0-2.116,2.258-6.374,2.258-7.95c0-0.306-0.119-0.564-0.377-0.564c-0.87,0-2.94,3.646-3.857,7.902
		l-0.071,0.164c-0.117,0.66-0.211,1.225-0.282,1.742C26.166,19.164,25.743,19.422,25.294,19.422z"/>
	<path fill="#FFFFFF" d="M48.893,17c0,0.541,0.094,0.799,0.33,0.799c0.869,0,2.164-2.846,2.422-3.363
		c0.141-0.258,0.281-0.4,0.398-0.4c0.096,0,0.164,0.095,0.164,0.235c0,0.118-0.021,0.234-0.094,0.399
		c-0.328,0.824-1.691,4.681-3.668,4.681c-0.918,0-1.764-0.658-1.693-2.682c-0.588,1.529-1.387,2.775-2.494,2.775
		c-1.176,0-2.115-1.223-2.115-3.27c0-3.081,2.471-7.714,2.471-11.666c0-0.776-0.189-1.152-0.52-1.27
		c-1.6,0.071-3.975,4.422-3.975,7.056c0,0.94,0.307,1.67,1.082,1.882c0.26,0.07,0.375,0.211,0.375,0.33
		c0,0.118-0.139,0.234-0.445,0.234c-1.977,0-2.752-1.857-2.752-3.269c0-2.987,2.609-6.892,5.291-6.892
		c0.283,0,0.543,0.071,0.754,0.165c1.082,0.165,1.881,0.964,1.881,2.634c0,3.552-2.021,7.974-2.021,10.631
		c0,1.106,0.398,1.554,0.893,1.554c0.895,0,1.789-3.176,2.211-5.199c0.66-3.198,1.576-7.079,2.164-9.243
		c0.094-0.376,0.471-0.564,0.871-0.564c0.609,0,1.293,0.423,1.293,1.199C51.715,5.286,48.893,14.482,48.893,17z"/>
	<path fill="#FFFFFF" d="M50.688,25.889c-0.492,0-1.012-0.398-1.012-1.152c0-0.775,2.377-12.652,3.295-15.969
		c0.164-0.588,0.633-0.847,1.082-0.847c0.516,0,1.01,0.33,1.01,0.894c0,0.095,0,0.165-0.188,0.941
		c0.682-1.482,1.529-2.516,2.541-2.516c1.434,0,2.021,1.363,2.021,3.081c0,3.575-2.516,9.032-5.268,9.032
		c-0.637,0-1.082-0.281-1.387-0.635c-0.637,2.893-1.154,5.479-1.225,6.326C51.512,25.607,51.113,25.889,50.688,25.889z
		 M52.992,17.846c0.189,0.164,0.518,0.354,0.801,0.354c1.646,0,3.363-5.34,3.363-7.927c0-0.846-0.188-1.34-0.613-1.34
		c-0.914,0-1.951,2.305-2.727,5.315C53.533,15.4,53.252,16.646,52.992,17.846z"/>
	<path fill="#FFFFFF" d="M59.771,18.129c0-0.988,0.822-2.165,2.115-2.165c0.965,0,1.365,0.612,1.365,1.317
		c0,0.988-0.801,2.164-2.047,2.164C60.43,19.445,59.771,19.021,59.771,18.129z M62.311,14.436c-0.188,0-0.375-0.188-0.375-0.565
		c0-0.094,0-0.165,0.021-0.258c0.637-3.646,1.6-7.502,2.918-11.642c0.188-0.635,0.752-0.941,1.34-0.941
		c0.611,0,1.197,0.376,1.197,1.082c0,0.211-0.047,0.447-0.139,0.682c-1.787,4.21-3.268,7.479-4.443,11.125
		C62.711,14.271,62.475,14.436,62.311,14.436z"/>
</g>
</svg>
