<?xml version="1.0" encoding="utf-8"?>
<!-- Generator: Adobe Illustrator 15.0.2, SVG Export Plug-In . SVG Version: 6.00 Build 0)  -->
<!DOCTYPE svg PUBLIC "-//W3C//DTD SVG 1.1//EN" "http://www.w3.org/Graphics/SVG/1.1/DTD/svg11.dtd">
<svg version="1.1" id="Layer_2" xmlns="http://www.w3.org/2000/svg" xmlns:xlink="http://www.w3.org/1999/xlink" x="0px" y="0px"
	 width="184.003px" height="54px" viewBox="0 0 184.003 54" enable-background="new 0 0 184.003 54" xml:space="preserve">
<rect x="80.04" y="2.041" fill="#DAAA00" width="24" height="24"/>
<path id="Facebook_2_" fill="#B94700" d="M93.286,8.548c0,0.547,0,2.988,0,2.988h-2.188v3.651h2.188v10.854h4.495V15.188h3.018
	c0,0,0.282-1.751,0.419-3.666c-0.393,0-3.418,0-3.418,0s0-2.125,0-2.497c0-0.374,0.489-0.875,0.974-0.875s1.504,0,2.449,0
	c0-0.498,0-2.216,0-3.804c-1.261,0-2.697,0-3.33,0C93.175,4.346,93.286,8.002,93.286,8.548z"/>
<rect x="132.04" y="2.041" fill="#DAAA00" width="24" height="24"/>
<path id="LinkedIn_2_" fill="#B94700" d="M152.47,15.114v6.496h-3.767v-6.061c0-1.523-0.545-2.562-1.908-2.562
	c-1.04,0-1.66,0.7-1.933,1.378c-0.1,0.241-0.125,0.578-0.125,0.917v6.327h-3.768c0,0,0.051-10.265,0-11.329h3.768v1.605
	c-0.008,0.012-0.018,0.025-0.024,0.038h0.024v-0.038c0.5-0.77,1.395-1.872,3.395-1.872C150.61,10.014,152.47,11.635,152.47,15.114z
	 M137.029,4.82c-1.288,0-2.132,0.846-2.132,1.957c0,1.087,0.818,1.958,2.082,1.958h0.025c1.313,0,2.131-0.871,2.131-1.958
	C139.11,5.666,138.318,4.82,137.029,4.82z M135.122,21.61h3.766V10.281h-3.766V21.61z"/>
<rect x="54.04" y="2.041" fill="#DAAA00" width="24" height="24"/>
<path id="Tumblr_2_" fill="#B94700" d="M67.271,18.791c-0.295-0.174-0.566-0.472-0.675-0.759c-0.109-0.29-0.095-0.877-0.095-1.896
	v-4.506H70.6V8.494h-4.098V4.429H63.98c-0.113,0.906-0.32,1.652-0.621,2.24c-0.301,0.587-0.697,1.089-1.195,1.508
	c-0.496,0.419-1.303,0.741-1.999,0.964v2.488h2.407v6.163c0,0.804,0.085,1.417,0.255,1.839c0.171,0.423,0.476,0.822,0.915,1.2
	c0.439,0.371,0.971,0.662,1.593,0.866C65.957,21.901,66.436,22,67.246,22c0.713,0,1.376-0.071,1.991-0.212
	c0.614-0.145,1.3-0.393,2.056-0.744v-2.772c-0.887,0.579-1.779,0.867-2.676,0.867C68.111,19.139,67.665,19.023,67.271,18.791z"/>
<rect x="28.04" y="2.041" fill="#DAAA00" width="24" height="24"/>
<path id="Twitter__x28_alt_x29__2_" fill="#B94700" d="M47.524,12.477c1.086-0.091,1.822-0.583,2.105-1.253
	c-0.391,0.24-1.606,0.503-2.278,0.254c-0.033-0.159-0.069-0.309-0.106-0.443c-0.511-1.878-2.262-3.392-4.097-3.209
	c0.148-0.061,0.299-0.116,0.449-0.167c0.201-0.07,1.388-0.265,1.2-0.682c-0.157-0.37-1.605,0.277-1.877,0.362
	c0.358-0.136,0.953-0.369,1.018-0.782c-0.552,0.075-1.092,0.336-1.51,0.715c0.15-0.161,0.264-0.359,0.289-0.573
	c-1.471,0.938-2.33,2.834-3.024,4.671c-0.547-0.528-1.031-0.945-1.465-1.178C37.01,9.54,35.556,8.858,33.27,8.01
	c-0.07,0.756,0.374,1.761,1.653,2.429c-0.277-0.036-0.784,0.046-1.189,0.143c0.166,0.867,0.705,1.581,2.164,1.927
	c-0.666,0.045-1.012,0.195-1.323,0.522c0.303,0.602,1.044,1.312,2.378,1.166c-1.482,0.64-0.604,1.824,0.604,1.647
	c-2.059,2.127-5.306,1.97-7.169,0.192c4.866,6.631,15.445,3.921,17.021-2.467c1.181,0.011,1.876-0.408,2.307-0.872
	C49.035,12.813,48.049,12.695,47.524,12.477z"/>
<rect x="158.04" y="2.041" fill="#DAAA00" width="24" height="24"/>
<path id="Vimeo_2_" fill="#B94700" d="M175.95,6.021c-2.442-0.079-4.096,1.291-4.961,4.112c0.445-0.184,0.879-0.276,1.301-0.276
	c0.891,0,1.285,0.5,1.18,1.502c-0.052,0.608-0.445,1.491-1.18,2.651c-0.736,1.161-1.287,1.741-1.652,1.741
	c-0.475,0-0.907-0.896-1.302-2.691c-0.132-0.526-0.369-1.871-0.708-4.033c-0.317-2.005-1.156-2.94-2.521-2.809
	c-0.577,0.054-1.441,0.582-2.596,1.583c-0.843,0.765-1.695,1.529-2.562,2.294l0.826,1.066c0.788-0.554,1.25-0.83,1.377-0.83
	c0.605,0,1.17,0.949,1.695,2.846c0.471,1.743,0.946,3.482,1.419,5.222c0.706,1.898,1.574,2.848,2.597,2.848
	c1.653,0,3.678-1.556,6.065-4.667c2.31-2.979,3.503-5.326,3.583-7.041C178.616,7.247,177.763,6.072,175.95,6.021z"/>
<rect x="2.04" y="2.041" fill="#DAAA00" width="24" height="24"/>
<path fill="#B94700" d="M14.062,5.002c-4.582,0-8.31,3.728-8.31,8.31s3.728,8.309,8.31,8.309s8.31-3.727,8.31-8.309
	S18.644,5.002,14.062,5.002z M16.528,20.363c0.029-0.357,0.07-0.814,0.008-1.292c-0.094-0.689-0.471-0.511-0.668-0.94
	c2.469,0,3.505-1.053,3.955-2.605c0.449-1.556,0.143-3.895-0.89-4.774c0.252-0.723,0.085-1.708-0.177-2.3
	c-0.545,0.02-0.947,0.099-1.423,0.308c-0.366,0.161-0.78,0.583-1.155,0.618c-0.383,0.036-0.913-0.192-1.422-0.221
	c-1.21-0.067-2.139,0.055-3.021,0.306c-0.712-0.472-1.4-0.972-2.534-1.022c-0.375,0.564-0.465,1.74-0.177,2.466
	c-1.015,0.863-1.184,3.485-0.711,4.619c0.628,1.512,1.843,2.564,4.176,2.564c-0.356,0.267-0.597,0.557-0.71,1.065l-0.044,1.111
	c-0.006,0.054-0.007,0.097-0.011,0.146c-2.981-0.984-5.142-3.793-5.142-7.1c0-4.124,3.355-7.479,7.479-7.479
	c4.123,0,7.479,3.355,7.479,7.479C21.54,16.57,19.441,19.339,16.528,20.363z"/>
<rect x="80.04" y="28.041" fill="#3B5998" width="24" height="24"/>
<rect x="132.04" y="28.041" fill="#0073B2" width="24" height="24"/>
<path id="LinkedIn_1_" fill="#FFFFFF" d="M152.47,40.989v6.496h-3.767v-6.061c0-1.523-0.545-2.562-1.908-2.562
	c-1.04,0-1.66,0.7-1.933,1.378c-0.1,0.241-0.125,0.578-0.125,0.917v6.327h-3.768c0,0,0.051-10.265,0-11.329h3.768v1.605
	c-0.008,0.012-0.018,0.025-0.024,0.037h0.024v-0.037c0.5-0.77,1.395-1.872,3.395-1.872C150.61,35.889,152.47,37.509,152.47,40.989z
	 M137.029,30.695c-1.288,0-2.132,0.846-2.132,1.957c0,1.087,0.818,1.958,2.082,1.958h0.025c1.313,0,2.131-0.871,2.131-1.958
	C139.11,31.541,138.318,30.695,137.029,30.695z M135.122,47.485h3.766V36.156h-3.766V47.485z"/>
<rect x="54.04" y="28.041" fill="#34526F" width="24" height="24"/>
<path id="Tumblr_1_" fill="#FFFFFF" d="M67.271,44.666c-0.295-0.174-0.566-0.472-0.675-0.759c-0.109-0.29-0.095-0.877-0.095-1.896
	v-4.506H70.6v-3.136h-4.098v-4.064H63.98c-0.113,0.906-0.32,1.652-0.621,2.24c-0.301,0.587-0.697,1.089-1.195,1.508
	c-0.496,0.419-1.303,0.741-1.999,0.964v2.488h2.407v6.163c0,0.804,0.085,1.417,0.255,1.839c0.171,0.423,0.476,0.822,0.915,1.2
	c0.439,0.371,0.971,0.662,1.593,0.866c0.622,0.203,1.101,0.303,1.911,0.303c0.713,0,1.376-0.071,1.991-0.212
	c0.614-0.145,1.3-0.393,2.056-0.744v-2.772c-0.887,0.579-1.779,0.867-2.676,0.867C68.111,45.014,67.665,44.898,67.271,44.666z"/>
<rect x="28.04" y="28.041" fill="#00A0D1" width="24" height="24"/>
<rect x="158.04" y="28.041" fill="#44BBFF" width="24" height="24"/>
<path id="Vimeo_1_" fill="#FFFFFF" d="M175.95,31.896c-2.442-0.08-4.096,1.291-4.961,4.111c0.445-0.184,0.879-0.275,1.301-0.275
	c0.891,0,1.285,0.5,1.18,1.502c-0.052,0.607-0.445,1.49-1.18,2.65c-0.736,1.161-1.287,1.741-1.652,1.741
	c-0.475,0-0.907-0.896-1.302-2.69c-0.132-0.527-0.369-1.871-0.708-4.033c-0.317-2.006-1.156-2.941-2.521-2.809
	c-0.577,0.053-1.441,0.582-2.596,1.582c-0.843,0.766-1.695,1.529-2.562,2.295l0.826,1.066c0.788-0.555,1.25-0.83,1.377-0.83
	c0.605,0,1.17,0.949,1.695,2.846c0.471,1.742,0.946,3.481,1.419,5.222c0.706,1.898,1.574,2.848,2.597,2.848
	c1.653,0,3.678-1.556,6.065-4.667c2.31-2.979,3.503-5.326,3.583-7.041C178.616,33.123,177.763,31.947,175.95,31.896z"/>
<rect x="2.04" y="28.041" fill="#EFEFEF" width="24" height="24"/>
<rect x="106.04" y="2.041" fill="#DAAA00" width="24" height="24"/>
<polygon id="_x2B__3_" fill="#B94700" points="123.681,3.925 125.579,3.925 125.579,8.356 130.026,8.356 130.026,10.216 
	125.579,10.216 125.579,14.687 123.681,14.687 123.681,10.216 119.25,10.216 119.25,8.356 123.681,8.356 "/>
<path fill="#B94700" d="M116.105,19.094l-1.261-0.979c-0.383-0.317-0.906-0.735-0.906-1.507c0-0.773,0.523-1.266,0.977-1.721
	c1.469-1.156,2.835-2.385,2.835-4.979c0-2.37-1.279-3.699-2.137-4.442c0.288,0,2.14,0,2.14,0l1.963-1.583h-7.385
	c-1.831,0.035-4.017,0.309-6.01,1.958c-0.093,0.08-0.194,0.174-0.281,0.257v8.545c0.957,0.797,2.259,1.401,3.844,1.401
	c0.351,0,0.733-0.037,1.118-0.072c-0.174,0.423-0.348,0.775-0.348,1.371c0,1.084,0.558,1.749,1.048,2.383
	c-1.336,0.09-4.079-0.137-5.662,1.128v2.019c0.721-0.98,1.874-1.418,2.378-1.604c1.466-0.49,3.354-0.561,3.671-0.561
	c0.347,0,0.521,0,0.8,0.035c2.658,1.895,4.562,2.869,4.58,4.662c0.004,0.346-0.095,0.455-0.146,0.632h2.045
	c0.21-0.493,0.281-1.074,0.281-1.724C119.649,21.896,117.641,20.393,116.105,19.094z M111.646,14.646
	c-3.005,0-4.239-3.475-4.239-5.822c0-0.915,0.093-1.86,0.687-2.597c0.56-0.7,1.537-1.157,2.447-1.157
	c2.897,0,4.362,3.928,4.362,6.454c0,0.506-0.257,1.493-0.912,2.243C113.414,14.423,112.519,14.646,111.646,14.646z"/>
<rect x="106.04" y="28.041" fill="#DD4B38" width="24" height="24"/>
<polygon id="_x2B__1_" fill="#FFFFFF" points="123.68,29.635 125.578,29.635 125.578,34.066 130.025,34.066 130.025,35.926 
	125.578,35.926 125.578,40.396 123.68,40.396 123.68,35.926 119.249,35.926 119.249,34.066 123.68,34.066 "/>
<path fill="#FFFFFF" d="M116.105,44.845l-1.261-0.979c-0.383-0.317-0.906-0.735-0.906-1.507c0-0.773,0.523-1.266,0.977-1.721
	c1.469-1.155,2.835-2.385,2.835-4.979c0-2.369-1.279-3.698-2.137-4.441c0.288,0,2.14,0,2.14,0l1.963-1.583h-7.385
	c-1.831,0.034-4.017,0.31-6.01,1.958c-0.093,0.08-0.194,0.174-0.281,0.258v8.545c0.957,0.798,2.259,1.401,3.844,1.401
	c0.351,0,0.733-0.037,1.118-0.072c-0.174,0.423-0.348,0.775-0.348,1.371c0,1.084,0.558,1.749,1.048,2.383
	c-1.336,0.09-4.079-0.137-5.662,1.128v2.019c0.721-0.98,1.874-1.418,2.378-1.604c1.466-0.49,3.354-0.561,3.671-0.561
	c0.347,0,0.521,0,0.8,0.035c2.658,1.895,4.562,2.869,4.58,4.662c0.004,0.346-0.095,0.455-0.146,0.632h2.045
	c0.21-0.493,0.281-1.074,0.281-1.724C119.649,47.647,117.641,46.144,116.105,44.845z M111.646,40.396
	c-3.005,0-4.239-3.475-4.239-5.822c0-0.914,0.093-1.859,0.687-2.596c0.56-0.701,1.537-1.158,2.447-1.158
	c2.897,0,4.362,3.928,4.362,6.455c0,0.506-0.257,1.492-0.912,2.242C113.414,40.174,112.519,40.396,111.646,40.396z"/>
<path fill="#333333" d="M14.062,31.002c-4.582,0-8.31,3.728-8.31,8.31s3.728,8.309,8.31,8.309s8.31-3.727,8.31-8.309
	S18.644,31.002,14.062,31.002z M16.528,46.363c0.029-0.357,0.07-0.814,0.008-1.292c-0.094-0.689-0.471-0.511-0.668-0.94
	c2.469,0,3.505-1.053,3.955-2.605c0.449-1.556,0.143-3.895-0.89-4.774c0.252-0.724,0.085-1.708-0.177-2.3
	c-0.545,0.02-0.947,0.099-1.423,0.309c-0.366,0.16-0.78,0.582-1.155,0.617c-0.383,0.036-0.913-0.191-1.422-0.221
	c-1.21-0.066-2.139,0.055-3.021,0.307c-0.712-0.473-1.4-0.973-2.534-1.022c-0.375,0.563-0.465,1.739-0.177,2.466
	c-1.015,0.863-1.184,3.484-0.711,4.619c0.628,1.512,1.843,2.564,4.176,2.564c-0.356,0.267-0.597,0.557-0.71,1.065l-0.044,1.111
	c-0.006,0.054-0.007,0.097-0.011,0.146c-2.981-0.984-5.142-3.793-5.142-7.1c0-4.124,3.355-7.479,7.479-7.479
	c4.123,0,7.479,3.354,7.479,7.479C21.54,42.57,19.441,45.339,16.528,46.363z"/>
<path id="Twitter__x28_alt_x29__3_" fill="#FFFFFF" d="M47.524,38.477c1.086-0.091,1.822-0.583,2.105-1.253
	c-0.391,0.24-1.606,0.503-2.278,0.254c-0.033-0.159-0.069-0.309-0.106-0.443c-0.511-1.878-2.262-3.392-4.097-3.209
	c0.148-0.061,0.299-0.116,0.449-0.167c0.201-0.07,1.388-0.265,1.2-0.682c-0.157-0.37-1.605,0.277-1.877,0.362
	c0.358-0.136,0.953-0.369,1.018-0.782c-0.552,0.075-1.092,0.336-1.51,0.715c0.15-0.161,0.264-0.359,0.289-0.573
	c-1.471,0.938-2.33,2.834-3.024,4.671c-0.547-0.528-1.031-0.945-1.465-1.178c-1.219-0.652-2.673-1.334-4.959-2.182
	c-0.07,0.756,0.374,1.761,1.653,2.429c-0.277-0.036-0.784,0.046-1.189,0.143c0.166,0.867,0.705,1.581,2.164,1.927
	c-0.666,0.045-1.012,0.195-1.323,0.522c0.303,0.602,1.044,1.312,2.378,1.166c-1.482,0.64-0.604,1.824,0.604,1.647
	c-2.059,2.127-5.306,1.97-7.169,0.192c4.866,6.631,15.445,3.921,17.021-2.467c1.181,0.011,1.876-0.408,2.307-0.872
	C49.035,38.813,48.049,38.695,47.524,38.477z"/>
<path id="Facebook_1_" fill="#FFFFFF" d="M93.286,34.548c0,0.547,0,2.988,0,2.988h-2.188v3.651h2.188v10.854h4.495V41.188h3.018
	c0,0,0.282-1.751,0.419-3.666c-0.393,0-3.418,0-3.418,0s0-2.125,0-2.497c0-0.374,0.489-0.875,0.974-0.875s1.504,0,2.449,0
	c0-0.498,0-2.217,0-3.804c-1.261,0-2.697,0-3.33,0C93.175,30.346,93.286,34.002,93.286,34.548z"/>
</svg>
